<?xml version="1.0" encoding="UTF-8"?>
<svg width="512" height="512" viewBox="0 0 512 512" fill="none" xmlns="http://www.w3.org/2000/svg">
  <!-- 背景 - 可选白色圆角方形 -->
  <rect width="512" height="512" rx="128" fill="white"/>
  
  <!-- 外层C字 - 浅蓝色 -->
  <path d="M256 80C157.2 80 80 157.2 80 256C80 354.8 157.2 432 256 432C294.8 432 330.4 419.2 358.4 397.6L328 367.2C309.6 381.6 284 390.4 256 390.4C181.6 390.4 121.6 330.4 121.6 256C121.6 181.6 181.6 121.6 256 121.6C284 121.6 309.6 130.4 328 144.8L358.4 114.4C330.4 92.8 294.8 80 256 80Z" fill="#4A90E2"/>
  
  <!-- 中层C字 - 中蓝色 -->
  <path d="M256 140C190.4 140 140 190.4 140 256C140 321.6 190.4 372 256 372C278.4 372 299.2 365.6 316.8 354.4L290.4 328C279.2 334.4 266.4 338.4 256 338.4C208.8 338.4 173.6 303.2 173.6 256C173.6 208.8 208.8 173.6 256 173.6C266.4 173.6 279.2 177.6 290.4 184L316.8 157.6C299.2 146.4 278.4 140 256 140Z" fill="#3B7DD6"/>
  
  <!-- 内层C字 - 深蓝色 -->
  <path d="M256 200C224 200 200 224 200 256C200 288 224 312 256 312C266.4 312 276 308.8 284 303.2L260.8 280C259.2 280.4 257.6 280.8 256 280.8C242.4 280.8 231.2 269.6 231.2 256C231.2 242.4 242.4 231.2 256 231.2C257.6 231.2 259.2 231.6 260.8 232L284 208.8C276 203.2 266.4 200 256 200Z" fill="#2B5BA6"/>
  
  <!-- 靶心外圈 - 蓝色 -->
  <circle cx="380" cy="280" r="60" fill="none" stroke="#4A90E2" stroke-width="6"/>
  <circle cx="380" cy="280" r="45" fill="none" stroke="#3B7DD6" stroke-width="6"/>
  <circle cx="380" cy="280" r="30" fill="none" stroke="#2B5BA6" stroke-width="6"/>
  <circle cx="380" cy="280" r="15" fill="#2B5BA6"/>
  
  <!-- 箭头 - 深蓝色，指向靶心 -->
  <path d="M420 240L440 260L400 300L395 295L420 270L415 265L420 240Z" fill="#2B5BA6"/>
  <path d="M415 265L440 290L435 295L415 275L420 270L415 265Z" fill="#1E4A8A"/>
  
  <!-- 装饰线条 - 浅蓝色，代表AI智能 -->
  <path d="M150 360L180 380L150 400" stroke="#4A90E2" stroke-width="4" stroke-linecap="round" stroke-linejoin="round" fill="none"/>
  <path d="M100 300L130 320L100 340" stroke="#4A90E2" stroke-width="4" stroke-linecap="round" stroke-linejoin="round" fill="none"/>
  
  <!-- 小圆点装饰 - 代表数据点 -->
  <circle cx="140" cy="420" r="4" fill="#4A90E2"/>
  <circle cx="90" cy="360" r="4" fill="#4A90E2"/>
  <circle cx="70" cy="280" r="4" fill="#3B7DD6"/>
</svg>
